<svg id="Layer_1" data-name="Layer 1" xmlns="http://www.w3.org/2000/svg" viewBox="0 0 500 120"><defs><style>.cls-1{fill:#867972;}.cls-2{fill:#e0dcd7;}.cls-3{fill:#fff;}.cls-4{fill:#3d2a20;}.cls-5{isolation:isolate;}.cls-6{fill:#61afef;}</style></defs><title>mellow-blueArtboard 1</title><path class="cls-1" d="M448.5,104.1a3.1,3.1,0,0,1-2.2-.9,3,3,0,0,1,0-4.1h0l39.9-37.8a3.11,3.11,0,0,1,4.3.1,3,3,0,0,1,0,4.1h0l-39.9,37.8A3.23,3.23,0,0,1,448.5,104.1Z"/><path class="cls-1" d="M488.4,66.3a3.23,3.23,0,0,1-2.1-.8L446.4,27.7a2.87,2.87,0,0,1-.1-4.1h0a3.11,3.11,0,0,1,4.3-.1l39.9,37.8a3,3,0,0,1,.1,4.2,3.49,3.49,0,0,1-2.2.8Z"/><path class="cls-1" d="M50.6,104.1a3.23,3.23,0,0,1-2.1-.8L8.6,65.5a2.87,2.87,0,0,1-.1-4.1h0a3.11,3.11,0,0,1,4.3-.1L52.7,99a2.87,2.87,0,0,1,.1,4.1h0A2.84,2.84,0,0,1,50.6,104.1Z"/><path class="cls-1" d="M10.7,66.3a3.1,3.1,0,0,1-2.2-.9,3,3,0,0,1,0-4.1h0L48.4,23.5a3.11,3.11,0,0,1,4.3.1,3,3,0,0,1,0,4.1h0L12.8,65.5A3.23,3.23,0,0,1,10.7,66.3Z"/><path class="cls-1" d="M383,112.2c-.3-.1-.5-.2-.8-.3a2.88,2.88,0,0,1-1.3-4l47.7-92a3.07,3.07,0,0,1,4-1.2,2.88,2.88,0,0,1,1.3,4l-47.7,92A2.83,2.83,0,0,1,383,112.2Z"/><path class="cls-2" d="M436.2,36a9.28,9.28,0,0,1-4.3.7c-.4,0-.6-.3-.7-.7h0a6.88,6.88,0,0,1-1.3-.2h0a.56.56,0,0,1-.6.5h-.1a19.5,19.5,0,0,1-6.5-2.7,21,21,0,0,1-7.4-7.4,13,13,0,0,1-1.4-3.9l-8.2,15.2c-.9,1.7-.7,4,.7,6.5a20.7,20.7,0,0,0,6.9,6.9,19.15,19.15,0,0,0,9,2.9c2.7,0,4.7-1,5.6-2.7Zm-22.6-3.5a.69.69,0,0,1-.3-.9.65.65,0,0,1,.9-.2h.1a.69.69,0,0,1,.3.9.75.75,0,0,1-1,.2Zm7.9,18.4a.69.69,0,0,1-.3-.9.65.65,0,0,1,.9-.2h.1a.69.69,0,0,1,.3.9.8.8,0,0,1-1,.2Zm3.3-1.7a.69.69,0,0,1-.3-.9.65.65,0,0,1,.9-.2h.1a.69.69,0,0,1,.3.9.8.8,0,0,1-1,.2Z"/><path class="cls-3" d="M431.9,35.4c2.9.1,5.1-.8,6.1-2.7s.7-4-.7-6.5a19.82,19.82,0,0,0-6.9-6.9,19.15,19.15,0,0,0-9-2.9c-2.7,0-4.7,1-5.6,2.7s-.7,4,.7,6.5a19.82,19.82,0,0,0,6.9,6.9,20.16,20.16,0,0,0,6.1,2.5.69.69,0,0,1,.5.8c.4.1.8.1,1.3.2a.58.58,0,0,1,.6-.6Z"/><path class="cls-4" d="M425.4,48a.65.65,0,0,0-.9.2v.1a.69.69,0,0,0,.3.9.65.65,0,0,0,.9-.2v-.1A.69.69,0,0,0,425.4,48Z"/><path class="cls-4" d="M422.1,49.7a.65.65,0,0,0-.9.2V50a.69.69,0,0,0,.3.9.65.65,0,0,0,.9-.2v-.1A.69.69,0,0,0,422.1,49.7Z"/><path class="cls-4" d="M414.3,31.3a.65.65,0,0,0-.9.2v.1a.69.69,0,0,0,.3.9.65.65,0,0,0,.9-.2v-.1A.81.81,0,0,0,414.3,31.3Z"/><path class="cls-4" d="M438.4,25.7a20.2,20.2,0,0,0-7.4-7.4,19.84,19.84,0,0,0-9.7-3.1c-3.1,0-5.5,1.2-6.6,3.3L404.8,37c-1.1,2.1-.9,4.9.7,7.8a20.2,20.2,0,0,0,7.4,7.4,19.84,19.84,0,0,0,9.7,3.1c3.1,0,5.5-1.2,6.6-3.3l9.9-18.5C440.2,31.3,440,28.6,438.4,25.7Zm-16,28.2a17.16,17.16,0,0,1-9-2.9,19.82,19.82,0,0,1-6.9-6.9c-1.4-2.5-1.6-4.8-.7-6.5L414,22.4a11.39,11.39,0,0,0,1.3,3.8,20.2,20.2,0,0,0,7.4,7.4,19.5,19.5,0,0,0,6.5,2.7.57.57,0,0,0,.7-.4v-.1h0a.79.79,0,0,0-.5-.8,21.78,21.78,0,0,1-6.1-2.5,19.82,19.82,0,0,1-6.9-6.9c-1.4-2.5-1.6-4.8-.7-6.5s2.9-2.7,5.6-2.7a17.16,17.16,0,0,1,9,2.9,19.82,19.82,0,0,1,6.9,6.9c1.4,2.5,1.6,4.8.7,6.5s-3.2,2.8-6.1,2.7a.56.56,0,0,0-.6.5V36h0c0,.4.3.6.7.7a8.88,8.88,0,0,0,4.3-.7L428,51.2c-.9,1.7-2.9,2.7-5.6,2.7Z"/><path class="cls-1" d="M428.2,27l-3-1.8a1.44,1.44,0,0,1-.5-1.8c1.2-2.4,2.5-4.7,3.7-7.1.1-.1.2-.1.5-.2h.6a21.16,21.16,0,0,0,2.1,1.1c.5.2,1,.5,1.5.7a1.18,1.18,0,0,1,.6.5,2.25,2.25,0,0,1,.1.7c-1.2,2.4-2.5,4.8-3.7,7.2a1.37,1.37,0,0,1-.8.8C428.6,27.3,428.3,27.1,428.2,27Z"/><g class="cls-5"><path class="cls-6" d="M133.58,61.21A14.59,14.59,0,0,0,119,46.95a14.44,14.44,0,0,0-14.45,14.26V86.54a.33.33,0,0,1-.1.19v.19a2.4,2.4,0,0,1-1.15,1.22,2.59,2.59,0,0,1-1.15.28h-.48a.34.34,0,0,1-.19-.09c-.19,0-.38-.19-.57-.28s-.19-.09-.29-.19l-.29-.28c-.1-.09-.1-.19-.19-.19s0-.09-.1-.19A.29.29,0,0,0,100,87a.34.34,0,0,0-.1-.28V61.21a14.45,14.45,0,0,0-28.9,0V86.26A2,2,0,0,1,69.94,88a1.1,1.1,0,0,1-.57.28c-.1.09-.19.09-.38.09H68.4a2.48,2.48,0,0,1-1.91-1.69v-42a2.2,2.2,0,0,1,2.2-2.16A2.17,2.17,0,0,1,71,44.7v4.41a18.88,18.88,0,0,1,14.45-6.57,19.08,19.08,0,0,1,16.75,9.76A19.47,19.47,0,0,1,119,42.54a18.85,18.85,0,0,1,19,18.67V86.26a2.23,2.23,0,0,1-2.3,2.16,2.2,2.2,0,0,1-2.2-2.16Z"/><path class="cls-6" d="M154.16,65.53a22.89,22.89,0,0,1,22.78-23.08c12.06,0,21.63,9.38,22.59,21.39v.37a2.15,2.15,0,0,1-2.3,2.06H158.75a18.28,18.28,0,0,0,18.18,17.64,17.7,17.7,0,0,0,15.12-8.35,2.26,2.26,0,0,1,3.06-.75,2.36,2.36,0,0,1,.77,3.19,22.45,22.45,0,0,1-18.95,10.42A22.85,22.85,0,0,1,154.16,65.53ZM159,61.87h35.51a18,18,0,0,0-17.61-14.92A18.21,18.21,0,0,0,159,61.87Z"/><path class="cls-6" d="M216.46,25a2.35,2.35,0,0,1,4.69,0V86.17a2.35,2.35,0,0,1-4.69,0Z"/><path class="cls-6" d="M240.29,25A2.35,2.35,0,0,1,245,25V86.17a2.35,2.35,0,0,1-4.69,0Z"/></g><g class="cls-5"><path class="cls-6" d="M283.45,42.44c12.35,0,22.2,10.51,22.2,23s-9.86,23-22.2,23-22.2-10.51-22.2-23S271.2,42.44,283.45,42.44Zm0,41.47c9.57,0,17.61-8.26,17.61-18.48s-8-18.58-17.61-18.58-17.61,8.35-17.61,18.58S273.88,83.92,283.45,83.92Z"/></g><g class="cls-5"><path class="cls-6" d="M335.15,88a1.72,1.72,0,0,1-1-1l-17.61-41.1a2.22,2.22,0,1,1,4.12-1.69l15.6,36.22,10.81-25.24a2.53,2.53,0,0,1,2.2-1.41,2.56,2.56,0,0,1,2.3,1.41l10.81,25.24,15.5-36.22a2.34,2.34,0,0,1,3-1.22,2.23,2.23,0,0,1,1.24,2.91L364.62,86.83a2.57,2.57,0,0,1-.86,1.13,2,2,0,0,1-1.15.47h-.48A2.19,2.19,0,0,1,360.32,87l-.1-.09L349.31,61.49,338.5,86.83a.33.33,0,0,0-.1.19,2.26,2.26,0,0,1-2,1.41,2.84,2.84,0,0,1-.86-.19A.5.5,0,0,1,335.15,88Z"/></g></svg>