<svg id="Layer_1" data-name="Layer 1" xmlns="http://www.w3.org/2000/svg" viewBox="0 0 410 232"><defs><style>.cls-1{fill:#3d2a20;}.cls-2{fill:#e0dcd7;}.cls-3{fill:#fff;}</style></defs><title>mellow-logoArtboard 1</title><path class="cls-1" d="M300.28,210.93a8,8,0,0,1-5.4-2.09,6.5,6.5,0,0,1,.21-9.72l99.24-88a8,8,0,0,1,10.59.2,6.5,6.5,0,0,1-.21,9.72l-99.24,88A8.14,8.14,0,0,1,300.28,210.93Z"/><path class="cls-1" d="M399.52,122.9a7.73,7.73,0,0,1-5.19-2L295,33a6.5,6.5,0,0,1-.21-9.72,8,8,0,0,1,10.59-.2l99.24,88a6.5,6.5,0,0,1,.21,9.72A7.48,7.48,0,0,1,399.52,122.9Z"/><path class="cls-1" d="M109.72,210.93a7.73,7.73,0,0,1-5.19-2L5.29,121a6.5,6.5,0,0,1-.21-9.72,8,8,0,0,1,10.59-.2l99.24,88a6.5,6.5,0,0,1,.21,9.72A7.65,7.65,0,0,1,109.72,210.93Z"/><path class="cls-1" d="M10.48,122.9a8,8,0,0,1-5.4-2.09,6.5,6.5,0,0,1,.21-9.72l99.24-88a8,8,0,0,1,10.59.2,6.5,6.5,0,0,1-.21,9.72L15.74,121A7.85,7.85,0,0,1,10.48,122.9Z"/><path class="cls-1" d="M137.26,229.95a7,7,0,0,1-1.89-.67c-3.68-1.85-5.18-6-3.31-9.38L250.6,5.56a7.6,7.6,0,0,1,10-2.73c3.68,1.85,5.18,6,3.31,9.38L145.4,226.54A7.45,7.45,0,0,1,137.26,229.95Z"/><path class="cls-2" d="M269.73,52.23A25.86,25.86,0,0,1,259,53.88a1.7,1.7,0,0,1-1.64-1.55s0,0,0,0q-1.54-.13-3.14-.39v0a1.42,1.42,0,0,1-1.75,1.14,55.56,55.56,0,0,1-16.29-6.29c-8-4.6-14.53-10.73-18.35-17.27a25,25,0,0,1-3.33-8.94L194.09,56.08c-2.3,4-1.69,9.41,1.71,15.22,3.53,6,9.6,11.73,17.09,16S228.35,94,235.34,94c6.73,0,11.7-2.21,14-6.21Zm-56.23-8.12a1.56,1.56,0,1,1,2.26-.49A1.64,1.64,0,0,1,213.51,44.11ZM233,86.91a1.56,1.56,0,1,1,2.26-.49A1.64,1.64,0,0,1,233,86.91ZM241.24,83a1.56,1.56,0,1,1,2.26-.49A1.64,1.64,0,0,1,241.24,83Z"/><path class="cls-3" d="M258.83,50.9c7.25.28,12.8-2,15.22-6.18,2.3-4,1.69-9.41-1.71-15.22-3.53-6-9.6-11.73-17.09-16s-15.47-6.66-22.46-6.66c-6.73,0-11.7,2.21-14,6.21s-1.69,9.41,1.71,15.22c3.53,6,9.6,11.73,17.09,16a52,52,0,0,0,15.24,5.89,1.66,1.66,0,0,1,1.36,1.74q1.6.26,3.14.39A1.38,1.38,0,0,1,258.83,50.9Z"/><path class="cls-1" d="M242.78,80.36a1.56,1.56,0,1,0,.71,2.19A1.64,1.64,0,0,0,242.78,80.36Z"/><path class="cls-1" d="M234.55,84.23a1.56,1.56,0,1,0,.71,2.19A1.64,1.64,0,0,0,234.55,84.23Z"/><path class="cls-1" d="M215,41.42a1.56,1.56,0,1,0,.71,2.19A1.64,1.64,0,0,0,215,41.42Z"/><path class="cls-1" d="M275,28.23c-3.82-6.54-10.34-12.68-18.35-17.27s-16.6-7.13-24.17-7.12c-7.84,0-13.7,2.7-16.51,7.59l-24.7,43.06c-2.81,4.89-2.18,11.32,1.78,18.08,3.82,6.54,10.34,12.68,18.35,17.27S228,97,235.62,97c7.84,0,13.7-2.7,16.51-7.59l24.7-43.06C279.64,41.42,279,35,275,28.23ZM235.34,94c-7,0-15-2.36-22.46-6.66s-13.56-10-17.09-16c-3.4-5.81-4-11.22-1.71-15.22l20.37-35.51a25,25,0,0,0,3.33,8.94c3.82,6.54,10.34,12.68,18.35,17.27a55.56,55.56,0,0,0,16.29,6.29,1.42,1.42,0,0,0,1.75-1.14v0a1.66,1.66,0,0,0-1.36-1.74,52,52,0,0,1-15.24-5.89c-7.49-4.3-13.56-10-17.09-16-3.4-5.81-4-11.22-1.71-15.22s7.27-6.21,14-6.21c7,0,15,2.36,22.46,6.66s13.56,10,17.09,16c3.4,5.81,4,11.22,1.71,15.22-2.42,4.21-8,6.47-15.22,6.18a1.38,1.38,0,0,0-1.49,1.39s0,0,0,0A1.7,1.7,0,0,0,259,53.88a25.86,25.86,0,0,0,10.76-1.65L249.34,87.78C247,91.78,242.08,94,235.34,94Z"/><rect class="cls-1" x="243.71" y="10.04" width="14.77" height="21.07" rx="3.13" ry="3.13" transform="translate(41.19 -118.75) rotate(28.89)"/></svg>