<?xml version="1.0" encoding="utf-8"?>
<!-- Generator: Adobe Illustrator 21.1.0, SVG Export Plug-In . SVG Version: 6.00 Build 0)  -->
<svg version="1.1" id="Layer_1" xmlns="http://www.w3.org/2000/svg" xmlns:xlink="http://www.w3.org/1999/xlink" x="0px" y="0px"
	 viewBox="0 0 500 120" style="enable-background:new 0 0 500 120;" xml:space="preserve">
<style type="text/css">
	.st0{fill:#FFFFFF;}
	.st1{fill:#54342B;}
	.st2{fill:#E0DCD7;}
	.st3{fill:#3D2A20;}
	.st4{font-family:'Quicksand-Regular';}
	.st5{font-size:93.83px;}
	.st6{letter-spacing:-2;}
</style>
<title>mellowArtboard 1</title>
<path class="st0" d="M448.5,104.1c-0.8,0-1.6-0.3-2.2-0.9c-1.1-1.2-1.1-3,0-4.1l0,0l39.9-37.8c1.2-1.1,3.1-1.1,4.3,0.1
	c1.1,1.2,1.1,3,0,4.1l0,0l-39.9,37.8C450,103.8,449.3,104.1,448.5,104.1z"/>
<path class="st0" d="M488.4,66.3c-0.8,0-1.5-0.3-2.1-0.8l-39.9-37.8c-1.2-1.1-1.2-3-0.1-4.1l0,0c1.2-1.2,3.1-1.2,4.3-0.1l39.9,37.8
	c1.2,1.1,1.2,3,0.1,4.2C490,66,489.2,66.3,488.4,66.3L488.4,66.3z"/>
<path class="st0" d="M50.6,104.1c-0.8,0-1.5-0.3-2.1-0.8L8.6,65.5c-1.2-1.1-1.2-3-0.1-4.1l0,0c1.2-1.2,3.1-1.2,4.3-0.1L52.7,99
	c1.2,1.1,1.2,3,0.1,4.1l0,0C52.2,103.8,51.4,104.1,50.6,104.1z"/>
<path class="st0" d="M10.7,66.3c-0.8,0-1.6-0.3-2.2-0.9c-1.1-1.2-1.1-3,0-4.1l0,0l39.9-37.8c1.2-1.1,3.1-1.1,4.3,0.1
	c1.1,1.2,1.1,3,0,4.1l0,0L12.8,65.5C12.2,66,11.5,66.3,10.7,66.3z"/>
<path class="st1" d="M383,112.2c-0.3-0.1-0.5-0.2-0.8-0.3c-1.5-0.7-2.1-2.5-1.3-4l47.7-92c0.8-1.4,2.6-1.9,4-1.2
	c1.5,0.7,2.1,2.5,1.3,4l-47.7,92C385.6,111.9,384.3,112.5,383,112.2z"/>
<path class="st2" d="M436.2,36c-1.4,0.6-2.9,0.8-4.3,0.7c-0.4,0-0.6-0.3-0.7-0.7l0,0c-0.4,0-0.8-0.1-1.3-0.2l0,0
	c0,0.3-0.3,0.5-0.6,0.5h-0.1c-2.3-0.5-4.5-1.4-6.5-2.7c-3.1-1.8-5.6-4.4-7.4-7.4c-0.7-1.2-1.1-2.5-1.4-3.9l-8.2,15.2
	c-0.9,1.7-0.7,4,0.7,6.5c1.7,2.8,4.1,5.2,6.9,6.9c2.7,1.7,5.8,2.7,9,2.9c2.7,0,4.7-1,5.6-2.7L436.2,36z M413.6,32.5
	c-0.3-0.2-0.5-0.6-0.3-0.9s0.6-0.4,0.9-0.2c0,0,0,0,0.1,0c0.3,0.2,0.5,0.6,0.3,0.9S414,32.7,413.6,32.5
	C413.7,32.5,413.7,32.5,413.6,32.5L413.6,32.5z M421.5,50.9c-0.3-0.2-0.5-0.6-0.3-0.9c0.2-0.3,0.6-0.4,0.9-0.2c0,0,0,0,0.1,0
	c0.3,0.2,0.5,0.6,0.3,0.9C422.2,51,421.8,51.1,421.5,50.9L421.5,50.9L421.5,50.9z M424.8,49.2c-0.3-0.2-0.5-0.6-0.3-0.9
	c0.2-0.3,0.6-0.4,0.9-0.2c0,0,0,0,0.1,0c0.3,0.2,0.5,0.6,0.3,0.9C425.5,49.3,425.1,49.4,424.8,49.2L424.8,49.2L424.8,49.2z"/>
<path class="st0" d="M431.9,35.4c2.9,0.1,5.1-0.8,6.1-2.7s0.7-4-0.7-6.5c-1.7-2.8-4-5.2-6.9-6.9c-2.7-1.7-5.8-2.7-9-2.9
	c-2.7,0-4.7,1-5.6,2.7s-0.7,4,0.7,6.5c1.7,2.8,4,5.2,6.9,6.9c1.9,1.2,4,2,6.1,2.5c0.3,0.1,0.6,0.4,0.5,0.8c0.4,0.1,0.8,0.1,1.3,0.2
	C431.3,35.7,431.5,35.4,431.9,35.4C431.8,35.4,431.9,35.4,431.9,35.4z"/>
<path class="st3" d="M425.4,48c-0.3-0.2-0.7-0.1-0.9,0.2c0,0,0,0,0,0.1c-0.2,0.3,0,0.7,0.3,0.9s0.7,0.1,0.9-0.2c0,0,0,0,0-0.1
	C425.9,48.6,425.7,48.2,425.4,48z"/>
<path class="st3" d="M422.1,49.7c-0.3-0.2-0.7-0.1-0.9,0.2c0,0,0,0,0,0.1c-0.2,0.3,0,0.7,0.3,0.9s0.7,0.1,0.9-0.2c0,0,0,0,0-0.1
	C422.6,50.3,422.4,49.9,422.1,49.7z"/>
<path class="st3" d="M414.3,31.3c-0.3-0.2-0.7-0.1-0.9,0.2c0,0,0,0,0,0.1c-0.2,0.3,0,0.7,0.3,0.9s0.7,0.1,0.9-0.2c0,0,0,0,0-0.1
	C414.7,31.9,414.6,31.5,414.3,31.3z"/>
<path class="st3" d="M438.4,25.7c-1.8-3.1-4.3-5.6-7.4-7.4c-2.9-1.9-6.3-2.9-9.7-3.1c-3.1,0-5.5,1.2-6.6,3.3L404.8,37
	c-1.1,2.1-0.9,4.9,0.7,7.8c1.8,3.1,4.3,5.6,7.4,7.4c2.9,1.9,6.3,2.9,9.7,3.1c3.1,0,5.5-1.2,6.6-3.3l9.9-18.5
	C440.2,31.3,440,28.6,438.4,25.7z M422.4,53.9c-3.2-0.1-6.3-1.1-9-2.9c-2.8-1.7-5.2-4-6.9-6.9c-1.4-2.5-1.6-4.8-0.7-6.5l8.2-15.2
	c0.2,1.4,0.7,2.7,1.3,3.8c1.8,3.1,4.3,5.6,7.4,7.4c2,1.3,4.2,2.2,6.5,2.7c0.3,0.1,0.6-0.1,0.7-0.4v-0.1l0,0c0-0.4-0.2-0.7-0.5-0.8
	c-2.2-0.5-4.2-1.4-6.1-2.5c-2.8-1.7-5.2-4-6.9-6.9c-1.4-2.5-1.6-4.8-0.7-6.5s2.9-2.7,5.6-2.7c3.2,0.1,6.3,1.1,9,2.9
	c2.8,1.7,5.2,4,6.9,6.9c1.4,2.5,1.6,4.8,0.7,6.5c-0.9,1.7-3.2,2.8-6.1,2.7c-0.3,0-0.6,0.2-0.6,0.5c0,0,0,0,0,0.1l0,0
	c0,0.4,0.3,0.6,0.7,0.7c1.5,0.1,3-0.1,4.3-0.7L428,51.2C427.1,52.9,425.1,53.9,422.4,53.9L422.4,53.9z"/>
<path class="st1" d="M428.2,27.2l-3-1.8c-0.6-0.4-0.8-1.2-0.5-1.8l2.9-5.6c0.3-0.6,1-0.9,1.6-0.6h0.1l3,1.8c0.6,0.4,0.8,1.2,0.5,1.8
	l-2.9,5.6C429.6,27.3,428.9,27.6,428.2,27.2C428.3,27.3,428.2,27.2,428.2,27.2z"/>
<text transform="matrix(1.02 0 0 1 57.5898 88.4199)" class="st0 st4 st5">mell</text>
<text transform="matrix(1.02 0 0 1 254.5518 88.4199)" class="st0 st4 st5 st6">o</text>
<text transform="matrix(1.02 0 0 1 310.5498 88.4199)" class="st0 st4 st5">w</text>
</svg>
