<svg id="Layer_1" data-name="Layer 1" xmlns="http://www.w3.org/2000/svg" viewBox="0 0 500 120"><defs><style>.cls-1,.cls-5,.cls-6{fill:#867972;}.cls-2{fill:#e0dcd7;}.cls-3{fill:#fff;}.cls-4{fill:#3d2a20;}.cls-5,.cls-6{isolation:isolate;font-size:93.83px;font-family:Quicksand-Regular, Quicksand;}.cls-6{letter-spacing:-0.03em;}</style></defs><title>mellowArtboard 1</title><path class="cls-1" d="M448.5,104.1a3.1,3.1,0,0,1-2.2-.9,3,3,0,0,1,0-4.1h0l39.9-37.8a3.11,3.11,0,0,1,4.3.1,3,3,0,0,1,0,4.1h0l-39.9,37.8A3.23,3.23,0,0,1,448.5,104.1Z"/><path class="cls-1" d="M488.4,66.3a3.23,3.23,0,0,1-2.1-.8L446.4,27.7a2.87,2.87,0,0,1-.1-4.1h0a3.11,3.11,0,0,1,4.3-.1l39.9,37.8a3,3,0,0,1,.1,4.2,3.49,3.49,0,0,1-2.2.8Z"/><path class="cls-1" d="M50.6,104.1a3.23,3.23,0,0,1-2.1-.8L8.6,65.5a2.87,2.87,0,0,1-.1-4.1h0a3.11,3.11,0,0,1,4.3-.1L52.7,99a2.87,2.87,0,0,1,.1,4.1h0A2.84,2.84,0,0,1,50.6,104.1Z"/><path class="cls-1" d="M10.7,66.3a3.1,3.1,0,0,1-2.2-.9,3,3,0,0,1,0-4.1h0L48.4,23.5a3.11,3.11,0,0,1,4.3.1,3,3,0,0,1,0,4.1h0L12.8,65.5A3.23,3.23,0,0,1,10.7,66.3Z"/><path class="cls-1" d="M383,112.2c-.3-.1-.5-.2-.8-.3a2.88,2.88,0,0,1-1.3-4l47.7-92a3.07,3.07,0,0,1,4-1.2,2.88,2.88,0,0,1,1.3,4l-47.7,92A2.83,2.83,0,0,1,383,112.2Z"/><path class="cls-2" d="M436.2,36a9.28,9.28,0,0,1-4.3.7c-.4,0-.6-.3-.7-.7h0a6.88,6.88,0,0,1-1.3-.2h0a.56.56,0,0,1-.6.5h-.1a19.5,19.5,0,0,1-6.5-2.7,21,21,0,0,1-7.4-7.4,13,13,0,0,1-1.4-3.9l-8.2,15.2c-.9,1.7-.7,4,.7,6.5a20.7,20.7,0,0,0,6.9,6.9,19.15,19.15,0,0,0,9,2.9c2.7,0,4.7-1,5.6-2.7Zm-22.6-3.5a.69.69,0,0,1-.3-.9.65.65,0,0,1,.9-.2h.1a.69.69,0,0,1,.3.9.75.75,0,0,1-1,.2Zm7.9,18.4a.69.69,0,0,1-.3-.9.65.65,0,0,1,.9-.2h.1a.69.69,0,0,1,.3.9.8.8,0,0,1-1,.2Zm3.3-1.7a.69.69,0,0,1-.3-.9.65.65,0,0,1,.9-.2h.1a.69.69,0,0,1,.3.9.8.8,0,0,1-1,.2Z"/><path class="cls-3" d="M431.9,35.4c2.9.1,5.1-.8,6.1-2.7s.7-4-.7-6.5a19.82,19.82,0,0,0-6.9-6.9,19.15,19.15,0,0,0-9-2.9c-2.7,0-4.7,1-5.6,2.7s-.7,4,.7,6.5a19.82,19.82,0,0,0,6.9,6.9,20.16,20.16,0,0,0,6.1,2.5.69.69,0,0,1,.5.8c.4.1.8.1,1.3.2a.58.58,0,0,1,.6-.6Z"/><path class="cls-4" d="M425.4,48a.65.65,0,0,0-.9.2v.1a.69.69,0,0,0,.3.9.65.65,0,0,0,.9-.2v-.1A.69.69,0,0,0,425.4,48Z"/><path class="cls-4" d="M422.1,49.7a.65.65,0,0,0-.9.2V50a.69.69,0,0,0,.3.9.65.65,0,0,0,.9-.2v-.1A.69.69,0,0,0,422.1,49.7Z"/><path class="cls-4" d="M414.3,31.3a.65.65,0,0,0-.9.2v.1a.69.69,0,0,0,.3.9.65.65,0,0,0,.9-.2v-.1A.81.81,0,0,0,414.3,31.3Z"/><path class="cls-4" d="M438.4,25.7a20.2,20.2,0,0,0-7.4-7.4,19.84,19.84,0,0,0-9.7-3.1c-3.1,0-5.5,1.2-6.6,3.3L404.8,37c-1.1,2.1-.9,4.9.7,7.8a20.2,20.2,0,0,0,7.4,7.4,19.84,19.84,0,0,0,9.7,3.1c3.1,0,5.5-1.2,6.6-3.3l9.9-18.5C440.2,31.3,440,28.6,438.4,25.7Zm-16,28.2a17.16,17.16,0,0,1-9-2.9,19.82,19.82,0,0,1-6.9-6.9c-1.4-2.5-1.6-4.8-.7-6.5L414,22.4a11.39,11.39,0,0,0,1.3,3.8,20.2,20.2,0,0,0,7.4,7.4,19.5,19.5,0,0,0,6.5,2.7.57.57,0,0,0,.7-.4v-.1h0a.79.79,0,0,0-.5-.8,21.78,21.78,0,0,1-6.1-2.5,19.82,19.82,0,0,1-6.9-6.9c-1.4-2.5-1.6-4.8-.7-6.5s2.9-2.7,5.6-2.7a17.16,17.16,0,0,1,9,2.9,19.82,19.82,0,0,1,6.9,6.9c1.4,2.5,1.6,4.8.7,6.5s-3.2,2.8-6.1,2.7a.56.56,0,0,0-.6.5V36h0c0,.4.3.6.7.7a8.88,8.88,0,0,0,4.3-.7L428,51.2c-.9,1.7-2.9,2.7-5.6,2.7Z"/><path class="cls-1" d="M428.2,27.2l-3-1.8a1.44,1.44,0,0,1-.5-1.8l2.9-5.6a1.2,1.2,0,0,1,1.6-.6h.1l3,1.8a1.44,1.44,0,0,1,.5,1.8l-2.9,5.6a1.15,1.15,0,0,1-1.7.6Z"/><text class="cls-5" transform="translate(57.59 88.42) scale(1.02 1)">mell</text><text class="cls-6" transform="translate(254.55 88.42) scale(1.02 1)">o</text><text class="cls-5" transform="translate(310.55 88.42) scale(1.02 1)">w</text></svg>